<svg width="19" height="19" viewBox="0 0 19 19" fill="none" xmlns="http://www.w3.org/2000/svg">
<path d="M9.4993 10.6319C9.82366 10.6319 10.1449 10.568 10.4445 10.4439C10.7442 10.3197 11.0165 10.1378 11.2459 9.90845C11.4752 9.67909 11.6572 9.4068 11.7813 9.10712C11.9054 8.80745 11.9693 8.48626 11.9693 8.16189C11.9693 7.83753 11.9054 7.51634 11.7813 7.21667C11.6572 6.91699 11.4752 6.6447 11.2459 6.41534C11.0165 6.18598 10.7442 6.00404 10.4445 5.87991C10.1449 5.75578 9.82366 5.69189 9.4993 5.69189C8.84421 5.69189 8.21596 5.95213 7.75274 6.41534C7.28953 6.87856 7.0293 7.50681 7.0293 8.16189C7.0293 8.81698 7.28953 9.44523 7.75274 9.90845C8.21596 10.3717 8.84421 10.6319 9.4993 10.6319Z" stroke="#161B1F" stroke-width="1.5"/>
<path d="M2.86583 6.72125C4.42542 -0.134587 14.5825 -0.12667 16.1342 6.72916C17.0446 10.7508 14.5429 14.155 12.35 16.2608C11.5837 16.9999 10.5606 17.4129 9.49604 17.4129C8.43145 17.4129 7.40836 16.9999 6.64208 16.2608C4.45708 14.155 1.95542 10.7429 2.86583 6.72125Z" stroke="#161B1F" stroke-width="1.5"/>
</svg>
