<svg width="37" height="38" viewBox="0 0 37 38" fill="none" xmlns="http://www.w3.org/2000/svg">
<g id="Frame 1410101691">
<g id="Avatar">
<circle id="Ellipse 212" cx="18" cy="18" r="18" fill="#EAEAFF"/>
<g id="Mask Group">
<mask id="mask0_1_120" style="mask-type:alpha" maskUnits="userSpaceOnUse" x="0" y="0" width="37" height="38">
<g id="Avatar_2">
<path id="Vector" d="M18.5 38C28.7173 38 37 29.4934 37 19C37 8.50659 28.7173 0 18.5 0C8.28273 0 0 8.50659 0 19C0 29.4934 8.28273 38 18.5 38Z" fill="#FFEBF0"/>
</g>
</mask>
<g mask="url(#mask0_1_120)">
<path id="Vector_2" d="M20.7617 14.788C20.7617 14.788 21.1654 14.5336 21.8168 14.6184C22.4681 14.7032 22.7617 14.9576 22.7617 14.9576" fill="white"/>
<path id="Vector_3" d="M17.5508 14.788C17.5508 14.788 17.1471 14.5336 16.4957 14.6184C15.8444 14.7032 15.5508 14.9576 15.5508 14.9576" fill="white"/>
<g id="Group">
<path id="Vector_4" d="M28.3125 31.3334C22.762 28.0545 14.2116 28.5445 9.09238 30.9094C5.45937 32.6054 1.47774 37.8442 0.00985718 43.9875H6.50524L5.43185 49.5654C9.31256 51.6006 13.707 52.7501 18.3584 52.7501C23.0373 52.7501 27.4409 51.5912 31.3308 49.5372L30.1932 44.7036L36.762 44.1005C36.7528 44.1005 35.239 35.4321 28.3125 31.3334Z" fill="#3D5CFF"/>
<path id="Vector_5" d="M6.60683 43.9779L8.27655 37.665L4.41418 43.9873L6.60683 43.9779Z" fill="#224BF4"/>
<path id="Vector_6" d="M27.789 36.8737L30.1927 44.7036L32.1468 44.534L27.789 36.8737Z" fill="#224BF4"/>
<path id="Vector_7" d="M6.61511 44.0817C6.60593 44.0817 6.59676 44.0817 6.58758 44.0817C6.54171 44.0723 6.51419 44.0158 6.52336 43.9686L8.35822 36.9774C8.36739 36.9302 8.42244 36.902 8.46831 36.9114C8.51418 36.9208 8.5417 36.9774 8.53253 37.0245L6.69767 44.0158C6.6885 44.0534 6.6518 44.0817 6.61511 44.0817Z" fill="#1F1F39"/>
<path id="Vector_8" d="M30.1011 44.7696C30.0644 44.7696 30.0277 44.7413 30.0185 44.7036L27.6699 36.8738C27.6516 36.8267 27.6791 36.7796 27.725 36.7607C27.7708 36.7419 27.8167 36.7701 27.8351 36.8172L30.1929 44.6471C30.2112 44.6942 30.1837 44.7413 30.1378 44.7602C30.1195 44.7602 30.1103 44.7696 30.1011 44.7696Z" fill="#1F1F39"/>
</g>
<path id="Vector_9" d="M12.224 18.0387L11.9304 15.5324C11.9304 15.5324 9.78362 15.5324 9.20565 14.5714C8.62767 13.6197 9.4717 12.9225 9.4717 12.9225C9.4717 12.9225 8.30657 11.3395 8.92124 9.88851C9.64601 8.18309 11.3433 8.54113 11.3433 8.54113C11.3433 8.54113 10.1047 6.28922 11.6185 4.60264C13.4717 2.52976 16.5726 4.60264 16.5726 4.60264C16.5726 4.60264 16.7744 3.25527 18.123 3.25527C19.4625 3.25527 19.4625 4.08442 19.4625 4.08442C19.4625 4.08442 20.6643 2.41669 22.7652 3.04798C25.8569 3.98078 25.3248 7.50469 25.3248 7.50469C25.3248 7.50469 26.5634 7.19375 26.9762 8.64478C27.389 10.0958 26.0496 10.614 26.0496 10.614C26.0496 10.614 27.2973 10.4067 27.6092 11.4432C28.0771 12.9978 26.7835 13.827 26.7835 13.827L26.0588 17.4545L12.224 18.0387Z" fill="#1F1F39"/>
<g id="Group_2">
<g id="Group_3">
<path id="Vector_10" d="M12.5741 15.6261C12.5741 15.6261 11.0328 14.5048 9.53737 15.2115C8.04197 15.9181 7.886 18.0476 9.01444 19.3855C10.1429 20.7235 12.9869 20.4125 12.9869 20.4125L12.5741 15.6261Z" fill="#C43D28"/>
<g id="Group_4">
<path id="Vector_11" d="M24.7753 15.5601C24.7753 15.5601 25.9588 14.5048 27.4633 15.2115C28.9588 15.9182 29.1147 18.0476 27.9863 19.3855C26.8578 20.7235 24.0138 20.4126 24.0138 20.4126L24.7753 15.5601Z" fill="#C43D28"/>
<path id="Vector_12" d="M24.9304 19.536C24.8662 19.536 24.8203 19.4794 24.8203 19.4229C24.8203 19.3946 24.8295 18.8293 25.435 17.8683C26.0497 16.8978 27.1781 16.5774 27.224 16.5586C27.2882 16.5397 27.3432 16.5774 27.3616 16.6434C27.3799 16.7093 27.3432 16.7659 27.279 16.7847C27.2698 16.7847 26.1873 17.1051 25.6185 17.9907C25.0497 18.8859 25.0405 19.4135 25.0405 19.4229C25.0405 19.4794 24.9946 19.536 24.9304 19.536Z" fill="#1F1F39"/>
<path id="Vector_13" d="M12.5735 19.5363C12.5093 19.5363 12.4634 19.4798 12.4634 19.4232C12.4634 19.4232 12.4542 18.8862 11.8854 17.9911C11.3166 17.096 10.2341 16.785 10.2249 16.785C10.1607 16.7662 10.1331 16.7002 10.1423 16.6437C10.1515 16.5872 10.2249 16.5495 10.2799 16.5589C10.3258 16.5683 11.4542 16.8981 12.0689 17.8686C12.6836 18.8297 12.6836 19.4044 12.6836 19.4232C12.6836 19.4798 12.6377 19.5363 12.5735 19.5363Z" fill="#1F1F39"/>
<path id="Vector_14" d="M12.7748 20.4032C13.3253 23.2016 15.3803 24.728 15.3803 24.728L15.0042 30.0798C15.0042 30.0798 15.5271 31.2576 18.2977 31.2576C21.2977 31.2576 22.1234 30.0798 22.1234 30.0798L21.9766 24.8128C21.9766 24.8128 23.8482 24.5018 24.7473 21.0345C25.6463 17.5765 25.1968 14.5049 25.1968 14.5049C25.1968 14.5049 20.7748 15.2115 19.2794 13.3271C17.784 11.4426 16.2794 9.54877 14.1051 10.491C11.9308 11.4332 12.206 17.5105 12.7748 20.4032Z" fill="#DA5742"/>
<path id="Vector_15" d="M16.3527 17.5104C16.7277 17.5104 17.0316 17.1391 17.0316 16.6812C17.0316 16.2233 16.7277 15.8521 16.3527 15.8521C15.9778 15.8521 15.6738 16.2233 15.6738 16.6812C15.6738 17.1391 15.9778 17.5104 16.3527 17.5104Z" fill="#1F1F39"/>
<path id="Vector_16" d="M21.298 17.5104C21.673 17.5104 21.9769 17.1391 21.9769 16.6812C21.9769 16.2233 21.673 15.8521 21.298 15.8521C20.9231 15.8521 20.6191 16.2233 20.6191 16.6812C20.6191 17.1391 20.9231 17.5104 21.298 17.5104Z" fill="#1F1F39"/>
<path id="Vector_17" d="M18.4911 15.3438C18.4911 15.3438 18.0783 17.3507 18.3077 17.8218C18.537 18.2929 19.1333 18.0573 19.1333 18.0573C19.1333 18.0573 18.537 17.8972 18.537 17.4261C18.5278 16.9549 18.4911 15.3438 18.4911 15.3438Z" fill="#1F1F39"/>
<path id="Vector_18" d="M15.3808 24.7281C15.39 25.2086 15.2156 28.4404 15.1698 28.6289C15.2156 28.6195 20.133 26.6596 21.0596 25.7645C21.0596 25.218 21.078 24.8129 21.078 24.8129C21.078 24.8129 20.1789 25.3594 18.0046 25.284C16.9955 25.2463 15.9037 25.0484 15.3808 24.7281Z" fill="#C43D28"/>
<g id="Group_5">
<path id="Vector_19" d="M22.5368 19.5553C23.3425 19.5553 23.9955 19.1335 23.9955 18.6131C23.9955 18.0927 23.3425 17.6709 22.5368 17.6709C21.7312 17.6709 21.0781 18.0927 21.0781 18.6131C21.0781 19.1335 21.7312 19.5553 22.5368 19.5553Z" fill="#C43D28"/>
<path id="Vector_20" d="M14.822 19.5553C15.6276 19.5553 16.2807 19.1335 16.2807 18.6131C16.2807 18.0927 15.6276 17.6709 14.822 17.6709C14.0164 17.6709 13.3633 18.0927 13.3633 18.6131C13.3633 19.1335 14.0164 19.5553 14.822 19.5553Z" fill="#C43D28"/>
</g>
</g>
</g>
<path id="Vector_21" d="M17.8953 19.6775C17.8953 19.6775 18.4457 19.866 18.8127 19.7717C19.1797 19.6775 19.9136 19.1122 19.9136 19.1122C19.9136 19.1122 20.0971 19.018 20.1888 19.1122C20.2806 19.2064 19.6934 20.2805 19.1797 20.4313C18.5375 20.6197 18.0788 20.3371 17.8035 19.9602C17.5283 19.5833 17.8953 19.6775 17.8953 19.6775Z" fill="white"/>
<path id="Vector_22" d="M12.666 20.2432C12.666 20.2432 13.9504 22.4103 15.3266 22.7872C16.7027 23.1641 16.4458 23.8236 17.0421 23.5409C17.6476 23.2583 17.8128 22.6929 19.0238 22.8814C20.2256 23.0698 19.9687 23.7294 20.7394 23.6352C21.51 23.5409 22.8036 22.5987 23.3999 22.0334C24.0054 21.4681 24.8586 20.5258 24.8586 20.5258C24.8586 20.5258 24.3082 24.4832 21.244 25.4254C18.9412 26.1321 15.6752 25.8023 14.2165 23.6352C12.7578 21.4681 12.666 20.2432 12.666 20.2432Z" fill="#1F1F39"/>
<path id="Vector_23" d="M16.7934 22.3348C16.7751 22.3348 16.7476 22.3254 16.7292 22.3159C16.6742 22.2783 16.665 22.2123 16.7017 22.1558L17.0687 21.5904C17.1054 21.5339 17.1696 21.5245 17.2246 21.5622C17.2797 21.5999 17.2889 21.6658 17.2522 21.7223L16.8852 22.2877C16.8668 22.3159 16.8301 22.3348 16.7934 22.3348Z" fill="#1F1F39"/>
<path id="Vector_24" d="M14.8671 21.9675C14.8304 21.9675 14.7937 21.9487 14.7754 21.9204C14.7387 21.8639 14.757 21.7979 14.8029 21.7602L15.3534 21.3833C15.4084 21.3456 15.4726 21.3645 15.5093 21.4116C15.546 21.4681 15.5277 21.5341 15.4818 21.5718L14.9313 21.9487C14.913 21.9581 14.8946 21.9675 14.8671 21.9675Z" fill="#1F1F39"/>
<path id="Vector_25" d="M18.8132 22.5234C18.749 22.5234 18.7031 22.4669 18.7031 22.4104V21.9392C18.7031 21.8733 18.7582 21.8262 18.8132 21.8262C18.8683 21.8262 18.9233 21.8827 18.9233 21.9392V22.4104C18.9233 22.4763 18.8774 22.5234 18.8132 22.5234Z" fill="#1F1F39"/>
<path id="Vector_26" d="M20.5549 22.2406C20.509 22.2406 20.4631 22.2123 20.4448 22.1652L20.2613 21.6941C20.2338 21.6375 20.2705 21.5621 20.3255 21.5433C20.3806 21.515 20.454 21.5527 20.4723 21.6093L20.6558 22.0804C20.6833 22.1369 20.6466 22.2123 20.5916 22.2311C20.5824 22.2405 20.5732 22.2406 20.5549 22.2406Z" fill="#1F1F39"/>
<path id="Vector_27" d="M22.5741 22.052C22.5558 22.052 22.5374 22.0426 22.5191 22.0332L21.8769 21.6563C21.8218 21.628 21.8035 21.5527 21.831 21.4961C21.8585 21.4396 21.9319 21.4208 21.987 21.449L22.6292 21.8259C22.6842 21.8542 22.7026 21.9296 22.675 21.9861C22.6475 22.0332 22.6108 22.052 22.5741 22.052Z" fill="#1F1F39"/>
</g>
<g id="Group_6" opacity="0.5919">
<g id="Group_7" opacity="0.5919">
<path id="Vector_28" opacity="0.5919" d="M13.0994 35.2529C13.1361 35.4414 13.182 35.6487 13.3471 35.7712C13.5123 35.8842 13.7325 35.8654 13.9251 35.8183C14.1637 35.7523 14.4114 35.6298 14.6499 35.7617C14.8609 35.8748 14.9618 36.1292 14.9068 36.3648C14.8884 36.4496 15.0169 36.4873 15.0352 36.4025C15.1453 35.9408 14.7783 35.5168 14.3196 35.5733C14.0811 35.6016 13.8517 35.7429 13.604 35.7241C13.338 35.7052 13.2738 35.4602 13.2279 35.2247C13.2095 35.121 13.0811 35.1587 13.0994 35.2529Z" fill="#BFE3C6"/>
<path id="Vector_29" opacity="0.5919" d="M4.96158 38.5979C4.9157 38.4 4.87901 38.1927 4.87901 37.9949C4.86983 37.8064 4.88818 37.6368 5.06249 37.5332C5.41111 37.3071 5.75974 37.6368 6.09918 37.6651C6.41111 37.6934 6.61294 37.4107 6.69551 37.128C6.7689 36.8454 6.73221 36.5344 6.57625 36.2895C6.53038 36.2141 6.41111 36.28 6.45698 36.3648C6.63129 36.6381 6.64047 37.0055 6.47533 37.2882C6.36524 37.4767 6.20927 37.5615 6.00744 37.4955C5.8423 37.4484 5.68634 37.3542 5.51203 37.3259C5.24598 37.2788 4.92488 37.3447 4.79644 37.6274C4.73222 37.7687 4.74139 37.9289 4.75057 38.0797C4.75974 38.2681 4.78726 38.4566 4.83314 38.6356C4.85148 38.7204 4.97992 38.6827 4.96158 38.5979Z" fill="#BFE3C6"/>
<path id="Vector_30" opacity="0.5919" d="M22.9621 33.2554C22.4667 33.4156 22.3199 34.0092 22.4943 34.4709C22.5952 34.7441 22.7878 34.9231 22.9713 35.1398C23.0814 35.2623 23.1732 35.4414 22.9988 35.5544C22.8521 35.6486 22.6594 35.6675 22.4943 35.6581C22.4025 35.6581 22.4025 35.7994 22.4943 35.7994C22.7236 35.8088 23.1273 35.7617 23.219 35.5073C23.3108 35.2623 23.0722 35.0456 22.9254 34.8854C22.7144 34.6593 22.5493 34.3578 22.5585 34.0374C22.5676 33.7548 22.7328 33.4815 22.9988 33.3967C23.0906 33.359 23.0539 33.2271 22.9621 33.2554Z" fill="#BFE3C6"/>
<path id="Vector_31" opacity="0.5919" d="M31.3189 37.0434C31.117 36.9774 30.9244 37.1187 30.8326 37.2978C30.7225 37.5333 30.7959 37.7971 30.8418 38.0327C30.8877 38.2777 30.8969 38.5603 30.6583 38.7017C30.4381 38.8242 30.1813 38.7299 30.0436 38.5321C29.9978 38.4567 29.8785 38.5321 29.9244 38.6074C30.0528 38.7959 30.2547 38.9278 30.484 38.909C30.7042 38.8901 30.906 38.7394 30.9794 38.5226C31.062 38.2588 30.9611 37.9856 30.9244 37.7218C30.906 37.5898 30.906 37.4391 30.9886 37.3166C31.0528 37.2224 31.1629 37.1564 31.2822 37.1941C31.3647 37.2035 31.4014 37.0716 31.3189 37.0434Z" fill="#BFE3C6"/>
</g>
</g>
</g>
</g>
</g>
</g>
</svg>
